/* XPM */
static char * collect2_xpm[] = {
"64 64 9 1",
" 	c #6E5967",
".	c #AD707B",
"+	c #C39490",
"@	c #D1B1A5",
"#	c #B77F83",
"$	c #DCCABE",
"%	c #5F5226",
"&	c #D7B84D",
"*	c #FDE07E",
"                                                                ",
".++++@@@@@++@+++++++++++++++++. .++++@@@@@++@+++++++++++++++++. ",
"+++++++++++++++++++++++++++++++ +++++++++++++++++++++++++++++++ ",
"++++++++++++++++++++.+.....++   ++++++++++++++++++++.+.....++   ",
"+++++++++++++++++++++@+@@@++++# +++++++++++++++++++++@+@@@++++# ",
"+++++++++++++++++++++++++++++++ +++++++++++++++++++++++++++++++ ",
"+++++++++++++++++++++++++++++++ +++++++++++++++++++++++++++++++ ",
".+++++++++++++++++++++++++++++. .+++++++++++++++++++++++++++++. ",
"                                                                ",
"@@@+++++++++++. .+++@+@@@@@+++++@@@+++++++++++. .+++@+@@@@@+++++",
"+++++++++++++++ +++++++++++++++++++++++++++++++ ++++++++++++++++",
"+++++++..+.++   +++++++++++++++++++++++..+.++   ++++++++++++++++",
"++++++@+@@++++# ++++++++++++++++++++++@+@@++++# ++++++++++++++++",
"+++++++++++++++ +++++++++++++++++++++++++++++++ ++++++++++++++++",
"+++++++++++++++ +++++++++++++++++++++++++++++++ ++++++++++++++++",
"++++++++++++++. .+++++++++++++++++++++++++++++. .+++++++++++++++",
"                                                                ",
".+++@+@@$$$@+@@+++++++++++%%%%%%%%%+@+@@$$$@+@@+++++++++++++++. ",
"++++++++++++++++++++++++++%%%%%%%%%++++++++++++++++++++++++++++ ",
"++++++++++++++++++++++++%%%%%%%%%%%%%++++++++++++++++++++++++++ ",
"++++++++++++++++++++++++%%%&&&&&&&%%%+++++++++++++++++++++++++# ",
"++++++++++++++++++++++..%%%&*****&%%%+++++++++++++++++..+.+     ",
"++++++++++++++++++++++++%%%&*****&%%%+++++++++++++++++++@+@@+++ ",
".+++++++++++%%%%%%%%++++%%%&&&&&&&%%%%%%%%%+++++++++++++++++++. ",
"            %%%%%%%%    %%%&&&&&&&%%%%%%%%%                     ",
"+++++++++++%%%%%%%%%%+@@%%%&*****&%%%%%%%%%%++.%%%%%%%%@@$$$@@++",
"+++++++++%%%%&&&&&&%%%++%%%&*****&%%&&&&&&%%%++%%%%%%%%+++++++++",
"++++...++%%%&&****&&%%%.%%%&&&&&&&%&&****&%%%+%%%%%%%%%%++++++++",
"+++++@+++%%%&&****&&%%%%%%%%&&&&&&%&*****&%%%%%%&&&&&&%%%%++++++",
"+++++++++%%%%&&&&&&%%%%%%%%%%&***&%&&&&&&&%%%%%&&****&&%%%++++++",
"+++++++++%%%%&&&&&&%%%%&&&&&&&&**&%%&&&&&&&&&&&&&****&&%%%++++++",
"+++++++++%%%&&****&&%%%&&***&&&&&&%%%%%%%&&***&&&&&&&&&%%%++++++",
"         %%%&&****&%%%%&*****&%%&&&&&&&%%&&****&&%&&&&&%%%      ",
".++++@@@@%%%%&&&&&%%%%%&&&&&&&%%%&&&&&&&%&&&&&&&%%&**&&%%%++++. ",
"+++++++++%%%%&&&&&&&&&&&&&&&&%%%%&&****&%&&&&&&&%&&**&&%%%+++++ ",
"+++++++++%%%%%%%&&&&&&&&%%%%%%%%%%&&&&&&%&&****&&%&&&&&%%%.++   ",
"+++++++%%%%%%%%%&&****&&%%%%%%%%%%%%%&&&%&&****&&%&&&&&%%%++++# ",
"+++++++%%%&&&&&%%&&&&&&&%&&&&&&&%%&&&&%%%&&&&&&&%%&**&&%%%+++++ ",
"+++++++%%%&&**&&%&&&&&&&%&*****&%&&&&&%%%&&&&&&&%&&**&&%%%+++++ ",
".++++++%%%&&&&&%%&****&&%&&&&&&&%&***&%%%&&****&%%&&&&&%%%++++. ",
"       %%%&&&&&%&&****&&%&&&&&&&%&***&%%%&*****&&%&&&&%%%%      ",
"@@@++++%%%&&**&%%&&&&&&&%&****&&%%&&&&%%%&&***&&%%%%&%%%%%@+++++",
"+++++++%%%&&**&&%&&&&&&&%&*****&%%%%%%%%%%&&&&&&%%%%%%%%%+++++++",
"+++++++%%%&&**&%%&****&&%&&*&&&&&&&&&&%%%%%&&&&%%%%%%%%+++++++++",
"++++++@%%%%&&&&%&&*****&%&&&&&%&*****&%%%%%%%%%%%%%%%%%%++++++++",
"+++++++%%%%&&&%%%&****&&%%&&&%%&&***&&%%&&&&&&%%%%%%%%%+++++++++",
"+++++++%%%%%%%%%%&&&&&&%%%%%%%%&&&&&&&%&&****&%%%%%%%%%%%%++++++",
"++++++++++%%%%%%%&&&&&&%%%%%%%%&&***&&%&&****&%%&&&&&&&%%%++++++",
"         %%%%%%%%%%%%%%%%%%%%%%&*****&%%&&&&&&%&&****&&%%%      ",
".+++@+@@$$$@+@@+%%%%%%%%++++%%%&&****&%%&&&&&%%&&****&&%%%++++. ",
"++++++++++++++++%%%%%%%%%+++%%%&&&&&&&%%%%%%%%%%&&&&&&%%%%+++++ ",
"++++++++++++++++++++++++++++%%%%&&&&&&%%%%%%%%%%&&&&&&%%%%+++++ ",
"++++++++++++++++++++++++++++%%%%%%%%%%%%%%%%%%%%%%%%%%%%%%++++# ",
"++++++++++++++++++++++..+.+ %%%%%%%%%%%++++++++%%%%%%%%.+.+     ",
"++++++++++++++++++++++++@+@@%%%%%%%%%%%++++++++%%%%%%%%%@+@@+++ ",
".+++++++++++++++++++++++++++++. .+++++++++++++++++++++++++++++. ",
"                                                                ",
"++++++++++++++. .+++@+@@@$$$@@++++++++++++++++. .+++@+@@@$$$@@++",
"+++++++++++++++ +++++++++++++++++++++++++++++++ ++++++++++++++++",
"++++...++.++    ++++++++++++++++++++...++.++    ++++++++++++++++",
"+++++@+++@@+@+# +++++++++++++++++++++@+++@@+@+# ++++++++++++++++",
"+++++++++++++++ +++++++++++++++++++++++++++++++ ++++++++++++++++",
"+++++++++++++++ +++++++++++++++++++++++++++++++ ++++++++++++++++",
"++++++++++++++. .+++++++++++++++++++++++++++++. .+++++++++++++++"};
