/* XPM */
static char * door_xpm[] = {
"64 64 16 1",
" 	c #6E5967",
".	c #AD707B",
"+	c #C39490",
"@	c #D1B1A5",
"#	c #B77F83",
"$	c #FBCAAE",
"%	c #EDA799",
"&	c #FAEBCF",
"*	c #E28989",
"=	c #D2727E",
"-	c #926475",
";	c #5D7889",
">	c #DCCABE",
",	c #B98080",
"'	c #728896",
")	c #86A0A8",
"                                                                ",
".++++@@@@@++@+++++++++++++++++. .++++@@@@@++@+++++++++++++++++. ",
"+++++++++++++++++++++++++++++++ +++++++++++++++++++++++++++++++ ",
"++++++++++++++++++++.+.....++   ++++++++++++++++++++.+.....++   ",
"+++++++++++++++++++++@+@@@++++# +++++++++++++++++++++@+@@@++++# ",
"+++++++++++++++++++++++++++++++ +++++++++++++++++++++++++++++++ ",
"+++++++++++++++++++++++++++++++ +++++++++++++++++++++++++++++++ ",
".+++++++++++++++++++++++++++++. .+++++++++++++++++++++++++++++. ",
"                                                                ",
"@@@+++++++++++.   $% %$$$&$&&$% %$$$&$&&&$% %$  .+++@+@@@@@+++++",
"++++++++++++++  %$$$ $$$$$$$$$$ $$$$$$$$$$$ $$$%  ++++++++++++++",
"+++++++..+.++ %&&$$$ $$$$$$$$$$ $$$$$$$$$$$ $$$&&% +++++++++++++",
"++++++@+@@++ %&$$$$% %$$$$$$$$% %$$$$$$$$$% %$$$$&% ++++++++++++",
"+++++++++++ %&$$$%** ********** *********** **%$$$&% +++++++++++",
"+++++++++++ $$$$%**=                        =**%$$$$ +++++++++++",
"++++++++++ %$$$%**   -.......-  ;  -......-   **%$$$% ++++++++++",
"           $$$$**   -.........  ;  ........-   **$$$$           ",
".+++@+@@> %$$$%*                ;               *%$$$% +++++++. ",
"+++++++++ $$$$**  -..........-  ;               **$$$$ ++++++++ ",
"+++++++++ $$$$*  -..,+++++++,.  '  .,+++++++,.-  *$$$$ ++++++++ ",
"+++++++++ %$$%*  ...+++++++++.  '  .+++++++++..  *%$$% +++++++# ",
"+++++++++                       ;                      .+.+     ",
"+++++++++ %$$%*    .++++++++++. ' .+++++++++.    *%$$% +@+@@+++ ",
".++++++++ $$$$* ;'; +++++++++++ ; ++++++++++ ;'; *$$$$ +++++++. ",
"          &$$$* ')' +++++++++++ ' ++++++++++ ')' *$$$&          ",
"+++++++++ &$$$*    .+++++++++++ ' ++++++++++.    *$$$& @@>>>@@++",
"+++++++++ $$$$* .+++++++++++++. ) .++++++++++++. *$$$$ +++++++++",
"++++...++ &$$$*                 )                *$$$& +++++++++",
"+++++@+++ $$$$*                 ) .++++++++++++. *$$$$ +++++++++",
"+++++++++ $$$$* -.............- ' ++++++++++++++ *$$$$ +++++++++",
"+++++++++ $$$$* ............... ) ++++++++++++++ *$$$$ +++++++++",
"+++++++++ %$$%* -.............- ' .++++++++++++. *%$$% +++++++++",
"                                '                               ",
".++++@@@@ %$$%* .+++++++++++++. ; .++++++++++++. *%$$% +++++++. ",
"+++++++++ $$$$* +++++++++++++++ ; ++++++++++++++ *$$$$ ++++++++ ",
"+++++++++ &$$$* +++++++++++++.     .++++++++++++ *$$$& ....++   ",
"+++++++++ &$$$* .+++++++++++, )) )) ,++++++++++. *$$$& @@@++++# ",
"+++++++++ $$$$*               ') ')              *$$$$ ++++++++ ",
"+++++++++ &$$$*               ') ') .++++++++++. *$$$& ++++++++ ",
".++++++++ $$$$*  -..........- ') ') ++++++++++++ *$$$$ +++++++. ",
"          $$$$*  ............ ') ') ++++++++++++ *$$$$          ",
"@@@++++++ $$$$*  -..........- ') ') .++++++++++. *$$$$ @@@@+++++",
"+++++++++ %$$%*               ') ')              *%$$% +++++++++",
"+++++++..       .+++++++++++. ') ')                    +++++++++",
"++++++@+@ %$$%* +++++++++++++ ') ') -.........-  *%$$% +++++++++",
"+++++++++ $$$$* +++++++++++++ ') ') ...........  *$$$$ +++++++++",
"+++++++++ &$$$* .+++++++++++. ') ') -.........-  *$$$& +++++++++",
"+++++++++ &$$$*               ') ')              *$$$& +++++++++",
"          $$$$* .+++++++++++, ;) ;) ,+++++++++++ *$$$$          ",
".+++@+@@> &$$$*    .+++++++++.  ;  .++++++++.    *$$$& +++++++. ",
"+++++++++ $$$$* ')' ++++++++++, ; ,+++++++++ ')' *$$$$ ++++++++ ",
"+++++++++ $$$$* ;'; +++++++++++ ' ++++++++++ ;'; *$$$$ ++++++++ ",
"+++++++++ $$$$*    .++++++++++. ' ++++++++++.    *$$$$ +++++++# ",
"+++++++++ %$$%*                 '                *%$$% .+.+     ",
"+++++++++       -............-  ; .++++++++++++.       +@+@@+++ ",
".++++++++ %$$%* ..............  ' ++++++++++++++ *%$$% +++++++. ",
"          $$$$* -............-  ; ++++++++++++++ *$$$$          ",
"+++++++++ &$$$*                 ' .++++++++++++. *$$$& @@>>>@@++",
"+++++++++ &$$$*                 ;                *$$$& +++++++++",
"++++...++ $$$$* .+++++++++++++. ;                *$$$$ +++++++++",
"+++++@+++ %$$%* +++++++++++++++ ;  ............  *%$$% +++++++++",
"+++++++++ ****= .+++++++++++++. ;  -..........-  =**** +++++++++",
"+++++++++                                              +++++++++",
"+++++++++                                              +++++++++"};
