/* XPM */
static char * door_xpm[] = {
"64 64 14 1",
" 	c #000000",
".	c #6E5967",
"+	c #FBCAAE",
"@	c #EDA799",
"#	c #FAEBCF",
"$	c #E28989",
"%	c #D2727E",
"&	c #926475",
"*	c #AD707B",
"=	c #5D7889",
"-	c #B98080",
";	c #C39490",
">	c #728896",
",	c #86A0A8",
"                                                                ",
"                                                                ",
"                                                                ",
"                                                                ",
"                                                                ",
"                                                                ",
"                                                                ",
"                                                                ",
"                  ............................                  ",
"                ..+@.@+++#+##+@.@+++#+###+@.@+..                ",
"              ..@+++.++++++++++.+++++++++++.+++@..              ",
"             .@##+++.++++++++++.+++++++++++.+++##@.             ",
"            .@#++++@.@++++++++@.@+++++++++@.@++++#@.            ",
"           .@#+++@$$.$$$$$$$$$$.$$$$$$$$$$$.$$@+++#@.           ",
"           .++++@$$%........................%$$@++++.           ",
"          .@+++@$$...&*******&..=..&******&...$$@+++@.          ",
"          .++++$$...&*********..=..********&...$$++++.          ",
"         .@+++@$................=...............$@+++@.         ",
"         .++++$$..&**********&..=...............$$++++.         ",
"         .++++$..&**-;;;;;;;-*..>..*-;;;;;;;-*&..$++++.         ",
"         .@++@$..***;;;;;;;;;*..>..*;;;;;;;;;**..$@++@.         ",
"         .......................=......................         ",
"         .@++@$....*;;;;;;;;;;*.>.*;;;;;;;;;*....$@++@.         ",
"         .++++$.=>=.;;;;;;;;;;;.=.;;;;;;;;;;.=>=.$++++.         ",
"         .#+++$.>,>.;;;;;;;;;;;.>.;;;;;;;;;;.>,>.$+++#.         ",
"         .#+++$....*;;;;;;;;;;;.>.;;;;;;;;;;*....$+++#.         ",
"         .++++$.*;;;;;;;;;;;;;*.,.*;;;;;;;;;;;;*.$++++.         ",
"         .#+++$.................,................$+++#.         ",
"         .++++$.................,.*;;;;;;;;;;;;*.$++++.         ",
"         .++++$.&*************&.>.;;;;;;;;;;;;;;.$++++.         ",
"         .++++$.***************.,.;;;;;;;;;;;;;;.$++++.         ",
"         .@++@$.&*************&.>.*;;;;;;;;;;;;*.$@++@.         ",
"         .......................>......................         ",
"         .@++@$.*;;;;;;;;;;;;;*.=.*;;;;;;;;;;;;*.$@++@.         ",
"         .++++$.;;;;;;;;;;;;;;;.=.;;;;;;;;;;;;;;.$++++.         ",
"         .#+++$.;;;;;;;;;;;;;*.....*;;;;;;;;;;;;.$+++#.         ",
"         .#+++$.*;;;;;;;;;;;-.,,.,,.-;;;;;;;;;;*.$+++#.         ",
"         .++++$...............>,.>,..............$++++.         ",
"         .#+++$...............>,.>,.*;;;;;;;;;;*.$+++#.         ",
"         .++++$..&**********&.>,.>,.;;;;;;;;;;;;.$++++.         ",
"         .++++$..************.>,.>,.;;;;;;;;;;;;.$++++.         ",
"         .++++$..&**********&.>,.>,.*;;;;;;;;;;*.$++++.         ",
"         .@++@$...............>,.>,..............$@++@.         ",
"         .......*;;;;;;;;;;;*.>,.>,....................         ",
"         .@++@$.;;;;;;;;;;;;;.>,.>,.&*********&..$@++@.         ",
"         .++++$.;;;;;;;;;;;;;.>,.>,.***********..$++++.         ",
"         .#+++$.*;;;;;;;;;;;*.>,.>,.&*********&..$+++#.         ",
"         .#+++$...............>,.>,..............$+++#.         ",
"         .++++$.*;;;;;;;;;;;-.=,.=,.-;;;;;;;;;;;.$++++.         ",
"         .#+++$....*;;;;;;;;;*..=..*;;;;;;;;*....$+++#.         ",
"         .++++$.>,>.;;;;;;;;;;-.=.-;;;;;;;;;.>,>.$++++.         ",
"         .++++$.=>=.;;;;;;;;;;;.>.;;;;;;;;;;.=>=.$++++.         ",
"         .++++$....*;;;;;;;;;;*.>.;;;;;;;;;;*....$++++.         ",
"         .@++@$.................>................$@++@.         ",
"         .......&************&..=.*;;;;;;;;;;;;*.......         ",
"         .@++@$.**************..>.;;;;;;;;;;;;;;.$@++@.         ",
"         .++++$.&************&..=.;;;;;;;;;;;;;;.$++++.         ",
"         .#+++$.................>.*;;;;;;;;;;;;*.$+++#.         ",
"         .#+++$.................=................$+++#.         ",
"         .++++$.*;;;;;;;;;;;;;*.=................$++++.         ",
"         .@++@$.;;;;;;;;;;;;;;;.=..************..$@++@.         ",
"         .$$$$%.*;;;;;;;;;;;;;*.=..&**********&..%$$$$.         ",
"         ..............................................         ",
"         ..............................................         "};
