/* XPM */
static char * collect2_xpm[] = {
"64 64 4 1",
" 	c None",
".	c #5F5226",
"+	c #D7B84D",
"@	c #FDE07E",
"                                                                ",
"                                                                ",
"                                                                ",
"                                                                ",
"                                                                ",
"                                                                ",
"                                                                ",
"                                                                ",
"                                                                ",
"                                                                ",
"                                                                ",
"                                                                ",
"                                                                ",
"                                                                ",
"                                                                ",
"                                                                ",
"                                                                ",
"                          .........                             ",
"                          .........                             ",
"                        .............                           ",
"                        ...+++++++...                           ",
"                        ...+@@@@@+...                           ",
"                        ...+@@@@@+...                           ",
"            ........    ...+++++++.........                     ",
"            ........    ...+++++++.........                     ",
"           ..........   ...+@@@@@+..........   ........         ",
"         ....++++++...  ...+@@@@@+..++++++...  ........         ",
"         ...++@@@@++... ...+++++++.++@@@@+... ..........        ",
"         ...++@@@@++........++++++.+@@@@@+......++++++....      ",
"         ....++++++..........+@@@+.+++++++.....++@@@@++...      ",
"         ....++++++....++++++++@@+..+++++++++++++@@@@++...      ",
"         ...++@@@@++...++@@@++++++.......++@@@+++++++++...      ",
"         ...++@@@@+....+@@@@@+..+++++++..++@@@@++.+++++...      ",
"         ....+++++.....+++++++...+++++++.+++++++..+@@++...      ",
"         ....++++++++++++++++....++@@@@+.+++++++.++@@++...      ",
"         .......++++++++..........++++++.++@@@@++.+++++...      ",
"       .........++@@@@++.............+++.++@@@@++.+++++...      ",
"       ...+++++..+++++++.+++++++..++++...+++++++..+@@++...      ",
"       ...++@@++.+++++++.+@@@@@+.+++++...+++++++.++@@++...      ",
"       ...+++++..+@@@@++.+++++++.+@@@+...++@@@@+..+++++...      ",
"       ...+++++.++@@@@++.+++++++.+@@@+...+@@@@@++.++++....      ",
"       ...++@@+..+++++++.+@@@@++..++++...++@@@++....+.....      ",
"       ...++@@++.+++++++.+@@@@@+..........++++++.........       ",
"       ...++@@+..+@@@@++.++@++++++++++.....++++........         ",
"       ....++++.++@@@@@+.+++++.+@@@@@+..................        ",
"       ....+++...+@@@@++..+++..++@@@++..++++++.........         ",
"       ..........++++++........+++++++.++@@@@+............      ",
"          .......++++++........++@@@++.++@@@@+..+++++++...      ",
"         ......................+@@@@@+..++++++.++@@@@++...      ",
"                ........    ...++@@@@+..+++++..++@@@@++...      ",
"                .........   ...+++++++..........++++++....      ",
"                            ....++++++..........++++++....      ",
"                            ..............................      ",
"                            ...........        ........         ",
"                            ...........        .........        ",
"                                                                ",
"                                                                ",
"                                                                ",
"                                                                ",
"                                                                ",
"                                                                ",
"                                                                ",
"                                                                ",
"                                                                "};
