/* XPM */
static char * player1_xpm[] = {
"64 64 55 1",
" 	c #6E5967",
".	c #AD707B",
"+	c #C39490",
"@	c #D1B1A5",
"#	c #1B2447",
"$	c #222D57",
"%	c #1F2950",
"&	c #B77F83",
"*	c #1F2A51",
"=	c #1D274C",
"-	c #1D274D",
";	c #151C36",
">	c #452A1B",
",	c #1E284F",
"'	c #1C254A",
")	c #543520",
"!	c #182040",
"~	c #724B2C",
"{	c #050403",
"]	c #7A4E2A",
"^	c #485262",
"/	c #B47538",
"(	c #B05B2C",
"_	c #18203E",
":	c #73EFE8",
"<	c #4E301E",
"[	c #736934",
"}	c #939446",
"|	c #3A4542",
"1	c #474C3C",
"2	c #53492A",
"3	c #474636",
"4	c #14121D",
"5	c #61683A",
"6	c #DCCABE",
"7	c #474E38",
"8	c #323232",
"9	c #282B39",
"0	c #202539",
"a	c #504227",
"b	c #D39741",
"c	c #1C2238",
"d	c #333846",
"e	c #F8F644",
"f	c #282C3C",
"g	c #2E3537",
"h	c #171819",
"i	c #20212F",
"j	c #1E2439",
"k	c #323848",
"l	c #252F4F",
"m	c #2D3835",
"n	c #2C303E",
"o	c #000000",
"p	c #3D4555",
"                                                                ",
".++++@@@@@++@+++++++++++++++++. .++++@@@@@++@+++++++++++++++++. ",
"+++++++++++++++++++++++++++++++ +++++++++++++++++++++++++++++++ ",
"++++++++++++++++++++.+.....++   ++++++++++++++++++++.+.....++   ",
"+++++++++++++++++++++########$$$$$%##++++++++++++++++@+@@@++++& ",
"+++++++++++++++++++++########$$$$$*=-$=##++++++++++++++++++++++ ",
"+++++++++++++++++++++++;;;;###=$$$$$$$=##++++++++++++++++++++++ ",
".++++++++++++++>>>+++++;;;;###=$$$$$$$,''##+++++++++++++++++++. ",
"               >>>     ;;;;#######%$$$$$-##                     ",
"@@@++++++++++>>)))>>@+@;;;;########!!!!!=,,+++. .+++@+@@@@@+++++",
"+++++++++++++>>)~~>>+++++;;#######;{{{{{#$$++++ ++++++++++++++++",
"+++++++..+.++>>~]]))>>>>+;;!!###!;^^^{^^^$$++   ++++++++++++++++",
"++++++@+@@++++&//(~)>>>>+;;;;###_{:::{::^$$+++& ++++++++++++++++",
"+++++++++++++++//])<>[[}}|;;;###_{^^^{^^^$$++++ ++++++++++++++++",
"+++++++++++++++ +>>>>[}}}1;;;###_{{{{{{{#$$++++ ++++++++++++++++",
"++++++++++++++. .>>22[}//3;;;_;44{{{{{{{#$$+++. .+++++++++++++++",
"                   55}}/();;;;;{{{{{{{{{#$$                     ",
".+++@+@@666@+@@++++557|88((;;;;;;;4{{{#*$$$$$@@+++++++++++++++. ",
"+++++++++++++++++++553;;;((;;;;;;;4{{{'$$$$$$++++++++++++++++++ ",
"+++++++++++++++++++990;;;8abb;;;;;_!'%$$$$$$$$+++++++++++++++++ ",
"+++++++++++++++++++;;;;;;;9bb88;;;!#,$$$$$$$$$++++++++++++++++& ",
"+++++++++++++++++++;;;;;;;;;cb/#########*$$$$$++++++++..+.+     ",
"+++++++++++++++++++;;;;;;;;;0b/dd#######*$$$$$++++++++++@+@@+++ ",
".++++++++++++++++++;;;;;;;;###[b/#########$$$$++++++++++++++++. ",
"                   ;;;;;;;;###~//[[[1#####$$$$                  ",
"++++++++++++++. .++;;;;;;;;#####[bbb/#####$$$$. .+++@+@@@666@@++",
"+++++++++++++++ +++;;;;;;__#####[bbb/#####$$$$+ ++++++++++++++++",
"++++...++.++    +++;;;;;;#######}eeb/#####$$$$+ ++++++++++++++++",
"+++++@+++@@+@+& +++;;;;;;#######5b}///1###$$$$+ ++++++++++++++++",
"+++++++++++++++ +++;;;;;;###########/b[###$$$$+ ++++++++++++++++",
"+++++++++++++++ +++;;;;;;###########]/~###$$$$+ ++++++++++++++++",
"++++++++++++++. .++;;;;;;###########~(~###$$$$. .+++++++++++++++",
"                   ;;;;;;#########fg32d###$$$$                  ",
".++++@@@@@++@++++++;;;;;;#########f8f#####$$$$++++++++++++++++. ",
"+++++++++++++++++++;;;;;;#########f8f#####$$$$+++++++++++++++++ ",
"+++++++++++++++++++;;;;;;#########f8f#####$$$$++++++.+.....++   ",
"+++++++++++++++++++;;;;;;#########chi8f###$$$$+++++++@+@@@++++& ",
"+++++++++++++++++++;;;;;;#########chi8f###$$$$+++++++++++++++++ ",
"+++++++++++++++++++;;;;;;#########chi8f###$$$$+++++++++++++++++ ",
".++++++++++++++++++;;;;;;#########ji88f###$$$$++++++++++++++++. ",
"                   ;;;;;;#########k|||l###$$$$                  ",
"@@@+++++++++++. .++;;;;;;########=d|||l###$$$$. .+++@+@@@@@+++++",
"+++++++++++++++ +++;;;;#########l|||||l###$$$$+ ++++++++++++++++",
"+++++++..+.++   +++;;;;#########l|||||f###$$$$+ ++++++++++++++++",
"++++++@+@@++++& +++;;;;#########l||||mf###$$$$  ++++++++++++++++",
"+++++++++++++++ +++;;;;########_0m|||mf###$$$$& ++++++++++++++++",
"+++++++++++++++ +++;;;;#######!444g||mf###$$$$+ ++++++++++++++++",
"++++++++++++++. .++;;;;#######!444i9gmf###$$$$. .+++++++++++++++",
"                   ;;;;#######!44444imf###$$$$                  ",
".+++@+@@666@+@@++++;;;;######;;44444imf###$$$$@+++++++++++++++. ",
"+++++++++++++++++++;;;;######4444444imf###$$$$+++++++++++++++++ ",
"+++++++++++++++++++;;;;######4444444imgg##$$$$+++++++++++++++++ ",
"+++++++++++++++++++;;;;######4444444immmf#$$$$++++++++++++++++& ",
"+++++++++++++++++++;;;;;;ff^^4444444ifff##$$$$++++++++..+.+     ",
"+++++++++++++++++++;;;;;;fn^^4444444ifff##$$$+++++++++++@+@@+++ ",
".++++++++++++++++++;;;;ff^^444444444440f##$$$+++++++++++++++++. ",
"                   ;;;;ff^^444444444440f##$$$                   ",
"++++++++++++++. .++;;;off^^644444+++++ff###+++. .+++@+@@@666@@++",
"+++++++++++++++ +++;;cfffpp+44444+++++ff##^^^++ ++++++++++++++++",
"++++...++.++    +++;;0fffff+++++++++..ff##^^^   ++++++++++++++++",
"+++++@+++@@+@+& +++;;0fffff++++++++++@ff##^^^+& ++++++++++++++++",
"+++++++++++++++ +++++++++++++++++++++++++++++++ ++++++++++++++++",
"+++++++++++++++ +++++++++++++++++++++++++++++++ ++++++++++++++++",
"++++++++++++++. .+++++++++++++++++++++++++++++. .+++++++++++++++"};
