/* XPM */
static char * rogue_size_xpm[] = {
"64 64 49 1",
" 	c #000000",
".	c #1B2447",
"+	c #222D57",
"@	c #1F2950",
"#	c #1F2A51",
"$	c #1D274C",
"%	c #1D274D",
"&	c #151C36",
"*	c #452A1B",
"=	c #1E284F",
"-	c #1C254A",
";	c #543520",
">	c #182040",
",	c #724B2C",
"'	c #050403",
")	c #7A4E2A",
"!	c #485262",
"~	c #B47538",
"{	c #B05B2C",
"]	c #18203E",
"^	c #73EFE8",
"/	c #4E301E",
"(	c #736934",
"_	c #939446",
":	c #3A4542",
"<	c #474C3C",
"[	c #53492A",
"}	c #474636",
"|	c #14121D",
"1	c #61683A",
"2	c #474E38",
"3	c #323232",
"4	c #282B39",
"5	c #202539",
"6	c #504227",
"7	c #D39741",
"8	c #1C2238",
"9	c #333846",
"0	c #F8F644",
"a	c #282C3C",
"b	c #2E3537",
"c	c #171819",
"d	c #20212F",
"e	c #1E2439",
"f	c #323848",
"g	c #252F4F",
"h	c #2D3835",
"i	c #2C303E",
"j	c #3D4555",
"                                                                ",
"                                                                ",
"                                                                ",
"                                                                ",
"                     ........+++++@..                           ",
"                     ........+++++#$%+$..                       ",
"                       &&&&...$+++++++$..                       ",
"               ***     &&&&...$+++++++=--..                     ",
"               ***     &&&&.......@+++++%..                     ",
"             **;;;**   &&&&........>>>>>$==                     ",
"             **;,,**     &&.......&'''''.++                     ",
"             **,));;**** &&>>...>&!!!'!!!++                     ",
"               ~~{,;**** &&&&...]'^^^'^^!++                     ",
"               ~~);/*((__:&&&...]'!!!'!!!++                     ",
"                 ****(___<&&&...]'''''''.++                     ",
"                 **[[(_~~}&&&]&||'''''''.++                     ",
"                   11__~{;&&&&&'''''''''.++                     ",
"                   112:33{{&&&&&&&|'''.#+++++                   ",
"                   11}&&&{{&&&&&&&|'''-++++++                   ",
"                   445&&&3677&&&&&]>-@++++++++                  ",
"                   &&&&&&&47733&&&>.=+++++++++                  ",
"                   &&&&&&&&&87~.........#+++++                  ",
"                   &&&&&&&&&57~99.......#+++++                  ",
"                   &&&&&&&&...(7~.........++++                  ",
"                   &&&&&&&&...,~~(((<.....++++                  ",
"                   &&&&&&&&.....(777~.....++++                  ",
"                   &&&&&&]].....(777~.....++++                  ",
"                   &&&&&&......._007~.....++++                  ",
"                   &&&&&&.......17_~~~<...++++                  ",
"                   &&&&&&...........~7(...++++                  ",
"                   &&&&&&...........)~,...++++                  ",
"                   &&&&&&...........,{,...++++                  ",
"                   &&&&&&.........ab}[9...++++                  ",
"                   &&&&&&.........a3a.....++++                  ",
"                   &&&&&&.........a3a.....++++                  ",
"                   &&&&&&.........a3a.....++++                  ",
"                   &&&&&&.........8cd3a...++++                  ",
"                   &&&&&&.........8cd3a...++++                  ",
"                   &&&&&&.........8cd3a...++++                  ",
"                   &&&&&&.........ed33a...++++                  ",
"                   &&&&&&.........f:::g...++++                  ",
"                   &&&&&&........$9:::g...++++                  ",
"                   &&&&.........g:::::g...++++                  ",
"                   &&&&.........g:::::a...++++                  ",
"                   &&&&.........g::::ha...++++                  ",
"                   &&&&........]5h:::ha...++++                  ",
"                   &&&&.......>|||b::ha...++++                  ",
"                   &&&&.......>|||d4bha...++++                  ",
"                   &&&&.......>|||||dha...++++                  ",
"                   &&&&......&&|||||dha...++++                  ",
"                   &&&&......|||||||dha...++++                  ",
"                   &&&&......|||||||dhbb..++++                  ",
"                   &&&&......|||||||dhhha.++++                  ",
"                   &&&&&&aa!!|||||||daaa..++++                  ",
"                   &&&&&&ai!!|||||||daaa..+++                   ",
"                   &&&&aa!!|||||||||||5a..+++                   ",
"                   &&&&aa!!|||||||||||5a..+++                   ",
"                   &&& aa!! |||||     aa...                     ",
"                   &&8aaajj |||||     aa..!!!                   ",
"                   &&5aaaaa           aa..!!!                   ",
"                   &&5aaaaa           aa..!!!                   ",
"                                                                ",
"                                                                ",
"                                                                "};
